<!-- icon666.com - MILLIONS OF FREE VECTOR ICONS --><svg version="1.1" id="Capa_1" xmlns="http://www.w3.org/2000/svg" xmlns:xlink="http://www.w3.org/1999/xlink" x="0px" y="0px" viewBox="0 0 512.002 512.002" style="enable-background:new 0 0 512.002 512.002;" xml:space="preserve"><path style="fill:#FFCC33;" d="M511.182,195.01c-1.8-5.403-6.3-9.002-11.7-9.902l-159.118-24.303L269.556,8.188 c-2.401-5.1-8.102-7.801-13.501-7.801c-5.4,0-11.101,2.701-13.501,7.801l-70.808,152.617L12.628,185.108 c-12,1.8-16.802,16.502-8.4,25.202l115.911,117.614L92.838,494.141c-2.1,12.3,11.401,21.603,22.202,15.603l141.015-78.009 l141.015,78.009c10.801,6.001,24.303-3.301,22.202-15.603l-27.302-166.217l115.911-117.614 C511.783,206.41,512.985,200.411,511.182,195.01z"></path><path style="fill:#FEA832;" d="M507.883,210.311L391.972,327.925l27.302,166.217c2.1,12.3-11.401,21.603-22.202,15.603 l-141.015-78.009V0.388c5.401,0,11.101,2.701,13.501,7.801l70.808,152.617l159.118,24.303c5.401,0.899,9.9,4.499,11.7,9.902 C512.985,200.411,511.783,206.41,507.883,210.311z"></path></svg>