<!-- icon666.com - MILLIONS OF FREE VECTOR ICONS --><svg id="_x30_4.growth_x5F_bar" enable-background="new 0 0 480 480" viewBox="0 0 480 480" xmlns="http://www.w3.org/2000/svg"><g fill="#048cf2"><path d="m400.6 216.8c-.2-.2-.3-.5-.5-.7-3.9-5.8-7.8-11.5-11.9-17.3-8.5 6-16.8 11.9-25.2 17.9l-33 23.4c-18.5 13.1-37 26.3-55.5 39.4-3 2.1-9.3 6.6-17.7 6.6-11.2 0-18.2-7.6-21.6-11.2l-21.7-23.5c-13.9-15-27.8-30.1-41.7-45.1-9.3 6.1-18.5 12.2-27.7 18.3-22.4 14.8-44.8 29.7-67.2 44.5l-24.2 16c-.4.3-.8.5-1.3.8 25 72.6 93.9 124.8 175 124.8 99.5 0 180.6-78.5 184.8-176.9.1-3.4-1.2-6.8-3.9-9-3.4-2.9-5.6-6.3-6.7-8z"></path><path id="icon_37_" d="m358.8 120c-7.9-11.7-15.5-23-23.1-34.3-1.5-2.3-3.5-4.4-4.5-7-.9-2.3-1.8-5.8-.7-7.4s4.9-2.4 7.2-2c14.7 2.5 29.4 5.5 44 8.4 20.5 4 40.9 7.9 61.4 11.9 6.5 1.3 7.7 2.9 6.4 9.6-4 21-8.1 42-12.2 63-2.6 13.2-4.8 26.5-7.7 39.6-.7 3-2.6 6.9-5.1 8.1-3.9 1.9-5.9-2.3-7.9-5.2-7.7-11.3-15.4-22.5-23.4-34.1-14.2 10-28 19.8-41.8 29.6-29.5 20.9-59 41.9-88.5 62.9-6 4.3-7.6 4-13-1.9-23.9-25.9-47.8-51.8-71.8-77.7-1-1.1-2.1-2-3.4-3.2-14 9.2-27.9 18.3-41.7 27.5-30.5 20.2-60.9 40.4-91.4 60.6-3.3 2.2-7 4.7-10.3.7s-.2-7.1 2.6-9.9c49.7-49.3 99.4-98.6 149.1-147.8 10.3-10.2 10.4-10.3 20.4.4 19.2 20.5 38.4 41 57.5 61.5 2.3 2.4 4.1 4.2 7.8 1.9 29-17.7 58-35.3 87.1-52.9.9-.6 1.6-1.2 3-2.3z"></path></g></svg>